<svg width="36" height="60" viewBox="0 0 36 60" fill="none" xmlns="http://www.w3.org/2000/svg">
<path d="M17.7297 51.451V52.387H7.3687V51.451H17.7297ZM13.1147 51.737V56.001H11.9837V51.737H13.1147ZM16.5857 49.423V50.333H8.7597V49.423H16.5857ZM16.4557 45.068V45.978H9.8517V49.67H8.7597V45.068H16.4557ZM16.2087 47.213V48.11H9.5267V47.213H16.2087ZM21.936 46.199V47.98C21.936 48.7687 21.793 49.553 21.507 50.333C21.221 51.113 20.831 51.8107 20.337 52.426C19.8517 53.0327 19.31 53.4877 18.712 53.791L18.049 52.894C18.595 52.6253 19.0977 52.2267 19.557 51.698C20.0163 51.1693 20.376 50.5757 20.636 49.917C20.9047 49.2583 21.039 48.6127 21.039 47.98V46.199H21.936ZM22.144 46.199V47.98C22.144 48.578 22.2697 49.1847 22.521 49.8C22.7723 50.4153 23.119 50.9743 23.561 51.477C24.0117 51.9797 24.5143 52.3567 25.069 52.608L24.432 53.505C23.8253 53.2103 23.2793 52.7727 22.794 52.192C22.3087 51.6113 21.9273 50.9527 21.65 50.216C21.3813 49.4793 21.247 48.734 21.247 47.98V46.199H22.144ZM24.64 45.705V46.641H18.452V45.705H24.64ZM27.058 44.548V55.988H25.927V44.548H27.058ZM28.904 49.137V50.073H26.798V49.137H28.904Z" fill="#23CB85"/>
<path d="M26.1667 15V13.56C26.1573 10.1964 26.0558 8.4132 24.9615 7.2648C23.7552 6 21.8138 6 17.9323 6H15.7355C11.8528 6 9.91267 6 8.70633 7.2648C7.5 8.5296 7.5 10.5672 7.5 14.64V20.16C7.5 24.2328 7.5 26.2692 8.70633 27.5352C9.77733 28.6584 11.427 28.7832 14.5 28.7976" stroke="#23CB85" stroke-width="2" stroke-linecap="round" stroke-linejoin="round"/>
<path d="M25.7875 27.2268L28.5 30M12.1667 12H21.5M12.1667 16.8H15.6667M27.3333 23.4C27.3333 21.9678 26.7802 20.5943 25.7956 19.5816C24.8111 18.5689 23.4757 18 22.0833 18C20.6909 18 19.3556 18.5689 18.371 19.5816C17.3865 20.5943 16.8333 21.9678 16.8333 23.4C16.8333 24.8322 17.3865 26.2057 18.371 27.2184C19.3556 28.2311 20.6909 28.8 22.0833 28.8C23.4757 28.8 24.8111 28.2311 25.7956 27.2184C26.7802 26.2057 27.3333 24.8322 27.3333 23.4Z" stroke="#23CB85" stroke-width="2" stroke-linecap="round" stroke-linejoin="round"/>
</svg>
