<svg width="36" height="60" viewBox="0 0 36 60" fill="none" xmlns="http://www.w3.org/2000/svg">
<path d="M16.5077 48.37V49.293H8.6947V48.37H16.5077ZM9.8127 45.12V48.812H8.6947V45.12H9.8127ZM17.7297 50.892V51.815H7.3817V50.892H17.7297ZM11.1387 51.217V56.001H10.0077V51.217H11.1387ZM15.0777 51.217V56.001H13.9727V51.217H15.0777ZM23.769 45.302V46.173C23.769 46.9703 23.5523 47.72 23.119 48.422C22.6857 49.1153 22.1137 49.7003 21.403 50.177C20.701 50.6537 19.947 50.9787 19.141 51.152L18.66 50.216C19.3447 50.086 20.0077 49.8217 20.649 49.423C21.2903 49.0157 21.806 48.526 22.196 47.954C22.5947 47.382 22.794 46.7883 22.794 46.173V45.302H23.769ZM23.964 45.302V46.173C23.964 46.797 24.1633 47.395 24.562 47.967C24.9607 48.539 25.4763 49.0287 26.109 49.436C26.7503 49.8347 27.422 50.0947 28.124 50.216L27.617 51.152C26.811 50.9787 26.0527 50.6537 25.342 50.177C24.64 49.7003 24.0723 49.1153 23.639 48.422C23.2057 47.7287 22.989 46.979 22.989 46.173V45.302H23.964ZM28.605 53.518V54.454H18.244V53.518H28.605Z" fill="#23CB85"/>
<path d="M25.2 22V14C25.2 10.2293 25.2 8.34267 24.1452 7.172C23.0916 6 21.3936 6 18 6H13.2C9.8064 6 8.1084 6 7.0548 7.172C6 8.34267 6 10.2293 6 14V22C6 25.7707 6 27.6573 7.0548 28.828C8.1084 30 9.8064 30 13.2 30H27.6M10.8 12.6667H20.4M10.8 18H20.4M10.8 23.3333H15.6" stroke="#23CB85" stroke-width="2" stroke-linecap="round" stroke-linejoin="round"/>
<path d="M25.2 12.6666H26.4C28.0968 12.6666 28.9452 12.6666 29.472 13.2533C30 13.8386 30 14.7813 30 16.6666V27.3333C30 28.0405 29.7471 28.7188 29.297 29.2189C28.8469 29.719 28.2365 30 27.6 30C26.9634 30 26.353 29.719 25.9029 29.2189C25.4528 28.7188 25.2 28.0405 25.2 27.3333V12.6666Z" stroke="#23CB85" stroke-width="2" stroke-linecap="round" stroke-linejoin="round"/>
</svg>
