<svg width="36" height="60" viewBox="0 0 36 60" fill="none" xmlns="http://www.w3.org/2000/svg">
<path d="M10.2146 47.72V55.039H9.12258V45.575H10.2536L13.6856 51.854L17.1176 45.575H18.2486V55.039H17.1696V47.72L14.1926 53.18H13.1656L10.2146 47.72ZM23.8393 51.347V55.039H22.7603V51.347L19.4973 45.575H20.7583L23.2933 50.125L25.8413 45.575H27.0893L23.8393 51.347Z" fill="#23CB85"/>
<path d="M18 15.6C20.8995 15.6 23.25 13.451 23.25 10.8C23.25 8.14903 20.8995 6 18 6C15.1005 6 12.75 8.14903 12.75 10.8C12.75 13.451 15.1005 15.6 18 15.6Z" stroke="#23CB85" stroke-width="2"/>
<path d="M28.4974 25.2C28.4991 25.0032 28.5 24.8032 28.5 24.6C28.5 21.618 23.7986 19.2 18 19.2C12.2014 19.2 7.5 21.618 7.5 24.6C7.5 27.582 7.5 30 18 30C20.9282 30 23.04 29.8116 24.5625 29.4756" stroke="#23CB85" stroke-width="2" stroke-linecap="round"/>
</svg>
