<svg width="36" height="60" viewBox="0 0 36 60" fill="none" xmlns="http://www.w3.org/2000/svg">
<path d="M17.7427 53.57V54.506H7.3817V53.57H17.7427ZM13.0757 50.827V53.869H11.9577V50.827H13.0757ZM12.9197 45.276V46.16C12.9197 46.94 12.6987 47.668 12.2567 48.344C11.8234 49.02 11.247 49.592 10.5277 50.06C9.81703 50.5193 9.05436 50.8357 8.2397 51.009L7.7717 50.06C8.4737 49.9387 9.14103 49.683 9.7737 49.293C10.415 48.903 10.935 48.4307 11.3337 47.876C11.7324 47.3213 11.9317 46.7493 11.9317 46.16V45.276H12.9197ZM13.1017 45.276V46.16C13.1017 46.758 13.301 47.3343 13.6997 47.889C14.0984 48.4437 14.6184 48.916 15.2597 49.306C15.901 49.6873 16.5727 49.9387 17.2747 50.06L16.7807 51.009C15.9747 50.8357 15.212 50.5193 14.4927 50.06C13.782 49.6007 13.21 49.033 12.7767 48.357C12.3434 47.6723 12.1267 46.94 12.1267 46.16V45.276H13.1017ZM26.902 45.666V46.563H24.341V45.666H26.902ZM26.902 47.72V48.617H24.341V47.72H26.902ZM27.669 44.548V50.528H26.538V44.548H27.669ZM27.669 51.074V53.804H21.416V55.52H20.298V52.985H26.551V51.958H20.285V51.074H27.669ZM28.072 54.961V55.832H20.298V54.961H28.072ZM21.962 44.834V45.991C21.962 46.6843 21.832 47.3387 21.572 47.954C21.312 48.5607 20.9437 49.0937 20.467 49.553C19.999 50.0037 19.4487 50.346 18.816 50.58L18.231 49.709C18.7943 49.5097 19.2883 49.2193 19.713 48.838C20.1463 48.4567 20.48 48.0233 20.714 47.538C20.948 47.044 21.065 46.5283 21.065 45.991V44.834H21.962ZM22.17 44.834V45.991C22.17 46.4937 22.2827 46.979 22.508 47.447C22.742 47.9063 23.067 48.318 23.483 48.682C23.9077 49.0373 24.393 49.3103 24.939 49.501L24.354 50.372C23.7387 50.1467 23.197 49.8173 22.729 49.384C22.261 48.942 21.9013 48.4307 21.65 47.85C21.3987 47.2693 21.273 46.6497 21.273 45.991V44.834H22.17Z" fill="#23CB85"/>
<path d="M17.5 11.8889C16.8222 11.8889 16.1722 11.6314 15.6929 11.1729C15.2137 10.7145 14.9444 10.0928 14.9444 9.44444C14.9444 8.79614 15.2137 8.17438 15.6929 7.71596C16.1722 7.25754 16.8222 7 17.5 7C18.1778 7 18.8278 7.25754 19.3071 7.71596C19.7863 8.17438 20.0556 8.79614 20.0556 9.44444C20.0556 10.0928 19.7863 10.7145 19.3071 11.1729C18.8278 11.6314 18.1778 11.8889 17.5 11.8889ZM17.5 11.8889V16.7778M17.5 16.7778C18.5167 16.7778 19.4917 17.1641 20.2106 17.8517C20.9295 18.5394 21.3333 19.472 21.3333 20.4444C21.3333 21.4169 20.9295 22.3495 20.2106 23.0372C19.4917 23.7248 18.5167 24.1111 17.5 24.1111C16.4833 24.1111 15.5083 23.7248 14.7894 23.0372C14.0705 22.3495 13.6667 21.4169 13.6667 20.4444C13.6667 19.472 14.0705 18.5394 14.7894 17.8517C15.5083 17.1641 16.4833 16.7778 17.5 16.7778ZM10.7278 25.0889L14.3056 22.6444M24.2722 25.0889L20.6944 22.6444M6 26.5556C6 27.2039 6.26925 27.8256 6.7485 28.284C7.22776 28.7425 7.87778 29 8.55556 29C9.23333 29 9.88335 28.7425 10.3626 28.284C10.8419 27.8256 11.1111 27.2039 11.1111 26.5556C11.1111 25.9072 10.8419 25.2855 10.3626 24.8271C9.88335 24.3687 9.23333 24.1111 8.55556 24.1111C7.87778 24.1111 7.22776 24.3687 6.7485 24.8271C6.26925 25.2855 6 25.9072 6 26.5556ZM23.8889 26.5556C23.8889 27.2039 24.1581 27.8256 24.6374 28.284C25.1167 28.7425 25.7667 29 26.4444 29C27.1222 29 27.7722 28.7425 28.2515 28.284C28.7308 27.8256 29 27.2039 29 26.5556C29 25.9072 28.7308 25.2855 28.2515 24.8271C27.7722 24.3687 27.1222 24.1111 26.4444 24.1111C25.7667 24.1111 25.1167 24.3687 24.6374 24.8271C24.1581 25.2855 23.8889 25.9072 23.8889 26.5556Z" stroke="#23CB85" stroke-width="2" stroke-linecap="round" stroke-linejoin="round"/>
</svg>
