<svg width="36" height="60" viewBox="0 0 36 60" fill="none" xmlns="http://www.w3.org/2000/svg">
<path d="M21.8868 52.556V55.832H14.0738V52.556H21.8868ZM15.1788 53.401V54.974H20.7818V53.401H15.1788ZM22.5498 45.458V46.342H13.3458V45.458H22.5498ZM17.9738 46.758C19.1698 46.758 20.0842 46.901 20.7168 47.187C21.3582 47.4643 21.6788 47.863 21.6788 48.383C21.6788 48.9117 21.3582 49.3147 20.7168 49.592C20.0842 49.8693 19.1698 50.008 17.9738 50.008C16.7778 50.008 15.8592 49.8693 15.2178 49.592C14.5852 49.3147 14.2688 48.9117 14.2688 48.383C14.2688 47.863 14.5852 47.4643 15.2178 47.187C15.8592 46.901 16.7778 46.758 17.9738 46.758ZM17.9738 47.551C17.1592 47.551 16.5352 47.6247 16.1018 47.772C15.6772 47.9107 15.4648 48.1143 15.4648 48.383C15.4648 48.6603 15.6772 48.8727 16.1018 49.02C16.5352 49.1587 17.1592 49.228 17.9738 49.228C18.7972 49.228 19.4212 49.1587 19.8458 49.02C20.2792 48.8727 20.4958 48.6603 20.4958 48.383C20.4958 48.1143 20.2792 47.9107 19.8458 47.772C19.4212 47.6247 18.7972 47.551 17.9738 47.551ZM18.5458 44.379V46.043H17.4148V44.379H18.5458ZM23.1478 50.84V51.724H12.8128V50.84H23.1478ZM18.5458 49.748V51.321H17.4148V49.748H18.5458Z" fill="#929292"/>
<path d="M30 29.3492V15.3175C30 15.0612 29.9458 14.8084 29.8416 14.5792C29.7375 14.35 29.5863 14.1506 29.4 13.9968L18.9 5.33016C18.6404 5.11585 18.3246 5 18 5C17.6754 5 17.3596 5.11585 17.1 5.33016L6.6 13.9968C6.41371 14.1506 6.2625 14.35 6.15836 14.5792C6.05422 14.8084 6 15.0612 6 15.3175V29.3492C6 29.787 6.15804 30.2069 6.43934 30.5165C6.72064 30.8261 7.10218 31 7.5 31H13.5C13.8978 31 14.2794 30.8261 14.5607 30.5165C14.842 30.2069 15 29.787 15 29.3492V24.3968C15 23.959 15.158 23.5391 15.4393 23.2295C15.7206 22.92 16.1022 22.746 16.5 22.746H19.5C19.8978 22.746 20.2794 22.92 20.5607 23.2295C20.842 23.5391 21 23.959 21 24.3968V29.3492C21 29.787 21.158 30.2069 21.4393 30.5165C21.7206 30.8261 22.1022 31 22.5 31H28.5C28.8978 31 29.2794 30.8261 29.5607 30.5165C29.842 30.2069 30 29.787 30 29.3492Z" stroke="#929292" stroke-width="2" stroke-linecap="round" stroke-linejoin="round"/>
</svg>
