<svg width="10" height="10" viewBox="0 0 10 10" fill="none" xmlns="http://www.w3.org/2000/svg">
<path d="M10 4.5C10 4.23478 9.90422 3.98043 9.73373 3.79289C9.56325 3.60536 9.33201 3.5 9.09091 3.5H6.21818L6.65455 1.215C6.66364 1.165 6.66818 1.11 6.66818 1.055C6.66818 0.85 6.59091 0.66 6.46818 0.525L5.98636 0L2.99545 3.29C2.82727 3.475 2.72727 3.725 2.72727 4V9C2.72727 9.26522 2.82305 9.51957 2.99354 9.70711C3.16403 9.89464 3.39526 10 3.63636 10H7.72727C8.10455 10 8.42727 9.75 8.56364 9.39L9.93636 5.865C9.97727 5.75 10 5.63 10 5.5V4.5ZM0 10H1.81818V4H0V10Z" fill="#929292"/>
</svg>
